<svg
    xmlns="http://www.w3.org/2000/svg"
    viewBox="0 0 24 24"
    fill="#ffffff"
    width="24"
    height="24"
  >
  <path
    d="M12 2C6.48 2 2 6.58 2 12.26c0 4.5 2.87 8.31 6.84 9.66.5.1.68-.22.68-.48v-1.7c-2.78.63-3.37-1.37-3.37-1.37-.45-1.2-1.1-1.52-1.1-1.52-.9-.64.07-.63.07-.63 1 .07 1.53 1.06 1.53 1.06.9 1.58 2.36 1.12 2.94.85.1-.67.35-1.12.63-1.38-2.22-.26-4.56-1.13-4.56-5.04 0-1.12.39-2.04 1.03-2.76-.1-.26-.45-1.3.1-2.7 0 0 .85-.28 2.78 1.05a9.4 9.4 0 015.06 0c1.93-1.33 2.78-1.05 2.78-1.05.55 1.4.2 2.44.1 2.7.64.72 1.03 1.64 1.03 2.76 0 3.92-2.34 4.78-4.57 5.03.36.32.68.95.68 1.92v2.85c0 .26.18.58.69.48A10.28 10.28 0 0022 12.26C22 6.58 17.52 2 12 2z"
  />
</svg>