<svg
xmlns="http://www.w3.org/2000/svg"
viewBox="0 0 24 24"
fill="#075e54"
class="w-6 h-6"
>
<path
d="M12.04 2C6.55 2 2.07 6.48 2.07 11.97c0 1.94.51 3.83 1.48 5.49L2 22l4.69-1.52a9.94 9.94 0 005.35 1.57h.01c5.49 0 9.97-4.48 9.97-9.97C22.02 6.48 17.54 2 12.04 2zm0 18.06c-1.66 0-3.28-.45-4.7-1.31l-.34-.2-2.78.9.93-2.71-.22-.35a8.03 8.03 0 01-1.25-4.33c0-4.43 3.61-8.03 8.06-8.03 4.44 0 8.05 3.6 8.05 8.03 0 4.44-3.61 8.03-8.05 8.03zm4.42-5.95c-.24-.12-1.41-.7-1.63-.78-.22-.08-.38-.12-.54.12-.16.24-.62.78-.76.94-.14.16-.28.18-.52.06-.24-.12-1.02-.38-1.94-1.21-.72-.64-1.2-1.44-1.34-1.68-.14-.24-.02-.37.1-.49.1-.1.24-.28.36-.42.12-.14.16-.24.24-.4.08-.16.04-.3-.02-.42-.06-.12-.54-1.3-.74-1.78-.2-.48-.4-.42-.54-.43h-.46c-.16 0-.42.06-.64.3-.22.24-.84.82-.84 2 0 1.18.86 2.32.98 2.48.12.16 1.7 2.6 4.12 3.64.58.25 1.02.4 1.37.51.58.18 1.1.15 1.52.09.46-.07 1.41-.58 1.61-1.14.2-.56.2-1.04.14-1.14-.06-.1-.22-.16-.46-.28z"
/>
</svg>